<?xml version="1.0" encoding="UTF-8" standalone="no"?>
<!DOCTYPE svg PUBLIC "-//W3C//DTD SVG 1.1//EN" "http://www.w3.org/Graphics/SVG/1.1/DTD/svg11.dtd">
<svg width="100%" height="100%" viewBox="0 0 313 313" version="1.1" xmlns="http://www.w3.org/2000/svg" xmlns:xlink="http://www.w3.org/1999/xlink" xml:space="preserve" xmlns:serif="http://www.serif.com/" style="fill-rule:evenodd;clip-rule:evenodd;stroke-linejoin:round;stroke-miterlimit:2;">
    <g transform="matrix(1,0,0,1,-85.4934,-207.295)">
        <g transform="matrix(0.228017,0,0,0.228017,-81.2577,70.9142)">
            <path d="M1745.32,1264.85C1728.5,1264.85 1714.86,1251.21 1714.86,1234.39C1714.86,1217.57 1728.5,1203.94 1745.32,1203.94C1762.14,1203.94 1775.77,1217.57 1775.77,1234.39C1775.77,1251.21 1762.14,1264.85 1745.32,1264.85ZM1652.79,1150.58C1643.53,1150.58 1636.02,1143.08 1636.02,1133.82C1636.02,1124.56 1643.53,1117.05 1652.79,1117.05C1662.05,1117.05 1669.55,1124.56 1669.55,1133.82C1669.55,1143.08 1662.05,1150.58 1652.79,1150.58ZM1652.79,1491.98C1643.53,1491.98 1636.02,1484.47 1636.02,1475.21C1636.02,1465.95 1643.53,1458.45 1652.79,1458.45C1662.05,1458.45 1669.55,1465.95 1669.55,1475.21C1669.55,1484.47 1662.05,1491.98 1652.79,1491.98ZM1592.95,1346.54C1569.16,1346.54 1549.88,1327.26 1549.88,1303.47C1549.88,1279.68 1569.16,1260.4 1592.95,1260.4C1616.74,1260.4 1636.02,1279.68 1636.02,1303.47C1636.02,1327.26 1616.74,1346.54 1592.95,1346.54ZM1563.47,1556.01C1546.65,1556.01 1533.01,1542.37 1533.01,1525.55C1533.01,1508.73 1546.65,1495.09 1563.47,1495.09C1580.29,1495.09 1593.92,1508.73 1593.92,1525.55C1593.92,1542.37 1580.29,1556.01 1563.47,1556.01ZM1484.13,1111.84C1447.23,1111.84 1417.32,1081.93 1417.32,1045.04C1417.32,1008.14 1447.23,978.234 1484.13,978.234C1521.02,978.234 1550.93,1008.14 1550.93,1045.04C1550.93,1081.93 1521.02,1111.84 1484.13,1111.84ZM1502.55,1636.39C1493.29,1636.39 1485.79,1628.88 1485.79,1619.62C1485.79,1610.36 1493.29,1602.86 1502.55,1602.86C1511.81,1602.86 1519.32,1610.36 1519.32,1619.62C1519.32,1628.88 1511.81,1636.39 1502.55,1636.39ZM1453.67,1252.23C1436.85,1252.23 1423.21,1238.6 1423.21,1221.78C1423.21,1204.96 1436.85,1191.32 1453.67,1191.32C1470.49,1191.32 1484.13,1204.96 1484.13,1221.78C1484.13,1238.6 1470.49,1252.23 1453.67,1252.23ZM1374.25,1535.05C1350.46,1535.05 1331.18,1515.77 1331.18,1491.98C1331.18,1468.19 1350.46,1448.91 1374.25,1448.91C1398.04,1448.91 1417.32,1468.19 1417.32,1491.98C1417.32,1515.77 1398.04,1535.05 1374.25,1535.05ZM1274.22,1121.33C1250.44,1121.33 1231.15,1102.05 1231.15,1078.26C1231.15,1054.47 1250.44,1035.19 1274.22,1035.19C1298.01,1035.19 1317.3,1054.47 1317.3,1078.26C1317.3,1102.05 1298.01,1121.33 1274.22,1121.33ZM1300.53,1208.09C1291.27,1208.09 1283.76,1200.58 1283.76,1191.32C1283.76,1182.06 1291.27,1174.56 1300.53,1174.56C1309.79,1174.56 1317.3,1182.06 1317.3,1191.32C1317.3,1200.58 1309.79,1208.09 1300.53,1208.09ZM1165.2,1394C1128.31,1394 1098.4,1364.1 1098.4,1327.2C1098.4,1290.31 1128.31,1260.4 1165.2,1260.4C1202.1,1260.4 1232.01,1290.31 1232.01,1327.2C1232.01,1364.1 1202.1,1394 1165.2,1394ZM1215.24,1525.51C1205.98,1525.51 1198.48,1518 1198.48,1508.75C1198.48,1499.49 1205.98,1491.98 1215.24,1491.98C1224.5,1491.98 1232.01,1499.49 1232.01,1508.75C1232.01,1518 1224.5,1525.51 1215.24,1525.51ZM1081.63,1150.58C1081.63,1141.33 1089.14,1133.82 1098.4,1133.82C1107.66,1133.82 1115.16,1141.33 1115.16,1150.58C1115.16,1159.84 1107.66,1167.35 1098.4,1167.35C1089.14,1167.35 1081.63,1159.84 1081.63,1150.58ZM1374.25,1329.77C1383.51,1329.77 1391.02,1337.28 1391.02,1346.54C1391.02,1355.8 1383.51,1363.31 1374.25,1363.31C1364.99,1363.31 1357.49,1355.8 1357.49,1346.54C1357.49,1337.28 1364.99,1329.77 1374.25,1329.77ZM2054.21,1235C2045.21,1235 2036.88,1237.6 2029.63,1241.83L2029.63,1241.59C2005.99,1255.25 1940.36,1303.72 1852.88,1242.24C1850.98,1222.24 1847.68,1202.67 1843.18,1183.55C1878.41,1169.31 1910.18,1181.31 1923.85,1184.98L1923.81,1184.82C1929.78,1186.44 1936.21,1186.71 1942.62,1184.99C1961.94,1179.81 1973.41,1159.95 1968.23,1140.62C1963.05,1121.3 1943.19,1109.83 1923.86,1115.01C1917.45,1116.73 1912.02,1120.16 1907.66,1124.56L1907.62,1124.39C1897.62,1134.39 1876.17,1160.6 1838.65,1165.95C1832.53,1144.09 1824.76,1122.94 1815.48,1102.61C1860.5,1005.64 1941.57,1014.8 1968.86,1014.81L1968.75,1014.61C1977.14,1014.64 1985.65,1012.73 1993.45,1008.23C2016.94,994.663 2024.99,964.619 2011.43,941.121C1997.86,917.624 1967.82,909.574 1944.32,923.14C1936.53,927.641 1930.61,934.052 1926.45,941.339L1926.33,941.138C1912.69,964.792 1880.07,1039.61 1773.51,1030.06C1745.34,990.64 1710.81,956.114 1671.39,927.944C1661.84,821.383 1736.66,788.766 1760.31,775.121L1760.11,775.006C1767.4,770.836 1773.81,764.926 1778.31,757.131C1791.88,733.634 1783.83,703.589 1760.33,690.023C1736.83,676.457 1706.79,684.508 1693.22,708.004C1688.72,715.799 1686.81,724.307 1686.84,732.703L1686.64,732.587C1686.65,759.886 1695.81,840.949 1598.84,885.968C1583.14,878.8 1566.98,872.481 1550.35,867.181C1531.53,800.933 1574.13,766.337 1587.51,752.783L1587.34,752.74C1591.71,748.35 1595.11,742.893 1596.78,736.47C1601.83,717.111 1590.23,697.326 1570.87,692.279C1551.51,687.231 1531.73,698.833 1526.68,718.193C1525,724.616 1525.31,731.038 1526.98,737.001L1526.81,736.957C1531.87,755.331 1552.18,806.37 1503.3,855.019C1488.85,852.14 1474.14,849.985 1459.22,848.567C1397.73,761.089 1446.2,695.458 1459.86,671.821L1459.63,671.821C1463.85,664.566 1466.45,656.242 1466.45,647.241C1466.45,620.109 1444.45,598.115 1417.32,598.115C1390.19,598.115 1368.2,620.109 1368.2,647.241C1368.2,656.242 1370.79,664.566 1375.02,671.821L1374.79,671.821C1388.45,695.458 1436.91,761.089 1375.43,848.567C1326.02,853.262 1279.05,866.223 1235.81,885.968C1138.84,840.949 1148,759.886 1148.01,732.587L1147.8,732.703C1147.84,724.308 1145.92,715.799 1141.42,708.004C1127.86,684.508 1097.81,676.457 1074.32,690.023C1050.82,703.589 1042.77,733.634 1056.33,757.131C1060.83,764.926 1067.25,770.836 1074.53,775.006L1074.33,775.121C1097.99,788.766 1172.8,821.383 1163.26,927.944C1123.83,956.114 1089.31,990.64 1061.14,1030.06C954.577,1039.61 921.96,964.792 908.316,941.138L908.2,941.339C904.031,934.052 898.12,927.64 890.324,923.14C866.829,909.574 836.783,917.624 823.218,941.121C809.652,964.619 817.703,994.663 841.199,1008.23C848.993,1012.73 857.503,1014.64 865.896,1014.61L865.781,1014.81C893.08,1014.8 974.143,1005.65 1019.16,1102.61C1009.58,1123.59 1001.61,1145.45 995.405,1168.05C957.902,1162.69 936.454,1136.5 926.464,1126.5L926.421,1126.66C922.059,1122.27 916.627,1118.83 910.216,1117.11C890.891,1111.93 871.027,1123.4 865.849,1142.73C860.672,1162.05 872.139,1181.92 891.464,1187.09C897.875,1188.81 904.3,1188.55 910.274,1186.93L910.229,1187.09C923.914,1183.42 955.711,1171.39 990.977,1185.68C986.734,1204.12 983.591,1222.98 981.762,1242.24C894.284,1303.72 828.652,1255.25 805.014,1241.59L805.014,1241.83C797.761,1237.6 789.436,1235 780.436,1235C753.304,1235 731.309,1257 731.309,1284.13C731.309,1311.26 753.304,1333.25 780.436,1333.25C789.436,1333.25 797.761,1330.66 805.014,1326.43L805.014,1326.66C828.652,1313 894.284,1264.54 981.762,1326.02C986.456,1375.43 999.418,1422.4 1019.16,1465.64C974.143,1562.61 893.08,1553.46 865.781,1553.45L865.896,1553.65C857.501,1553.61 848.993,1555.53 841.199,1560.03C817.703,1573.59 809.652,1603.64 823.218,1627.14C836.783,1650.63 866.829,1658.68 890.324,1645.12C898.12,1640.62 904.031,1634.2 908.2,1626.92L908.316,1627.12C921.96,1603.46 954.577,1528.65 1061.14,1538.19C1071.41,1552.56 1082.44,1566.34 1094.33,1579.34C1074.66,1638.19 1024.29,1645.83 1006.69,1650.49L1006.81,1650.61C1000.82,1652.17 995.113,1655.14 990.406,1659.82C976.218,1673.92 976.148,1696.86 990.254,1711.05C1004.36,1725.23 1027.29,1725.3 1041.48,1711.2C1046.19,1706.52 1049.19,1700.83 1050.79,1694.85L1050.91,1694.97C1055.67,1677.38 1063.62,1626.99 1122.73,1607.71C1135.54,1619.38 1149.12,1630.21 1163.26,1640.31C1172.8,1746.87 1097.99,1779.49 1074.33,1793.13L1074.53,1793.25C1067.25,1797.42 1060.83,1803.33 1056.33,1811.13C1042.77,1834.62 1050.82,1864.67 1074.32,1878.23C1097.81,1891.8 1127.86,1883.75 1141.42,1860.25C1145.92,1852.46 1147.84,1843.95 1147.8,1835.55L1148.01,1835.67C1148,1808.37 1138.84,1727.31 1235.81,1682.29C1279.05,1702.03 1326.02,1715 1375.43,1719.69C1436.91,1807.17 1388.45,1872.8 1374.79,1896.44L1375.02,1896.44C1370.79,1903.69 1368.2,1912.01 1368.2,1921.02C1368.2,1948.15 1390.19,1970.14 1417.32,1970.14C1444.45,1970.14 1466.45,1948.15 1466.45,1921.02C1466.45,1912.01 1463.85,1903.69 1459.63,1896.44L1459.86,1896.44C1446.2,1872.8 1397.73,1807.17 1459.22,1719.69C1508.63,1715 1555.6,1702.03 1598.84,1682.29C1695.81,1727.31 1686.65,1808.37 1686.64,1835.67L1686.84,1835.55C1686.81,1843.95 1688.72,1852.46 1693.22,1860.25C1706.79,1883.75 1736.83,1891.8 1760.33,1878.23C1783.83,1864.67 1791.88,1834.62 1778.31,1811.13C1773.81,1803.33 1767.4,1797.42 1760.11,1793.25L1760.31,1793.13C1736.66,1779.49 1661.84,1746.87 1671.39,1640.31C1710.81,1612.14 1745.34,1577.62 1773.51,1538.19C1880.07,1528.65 1912.69,1603.46 1926.33,1627.12L1926.45,1626.92C1930.61,1634.2 1936.53,1640.62 1944.32,1645.12C1967.82,1658.68 1997.86,1650.63 2011.43,1627.14C2024.99,1603.64 2016.94,1573.59 1993.45,1560.03C1985.65,1555.53 1977.14,1553.61 1968.75,1553.65L1968.86,1553.45C1941.57,1553.46 1860.5,1562.61 1815.48,1465.64C1823.62,1447.82 1830.64,1429.38 1836.36,1410.36C1875.63,1414.76 1897.94,1441.99 1908.18,1452.23L1908.23,1452.07C1912.59,1456.46 1918.02,1459.9 1924.43,1461.62C1943.75,1466.8 1963.62,1455.33 1968.8,1436.01C1973.97,1416.68 1962.51,1396.82 1943.18,1391.64C1936.77,1389.92 1930.35,1390.18 1924.37,1391.81L1924.42,1391.64C1910.45,1395.39 1877.61,1407.78 1841.47,1392.08C1846.91,1370.65 1850.74,1348.58 1852.88,1326.02C1940.36,1264.54 2005.99,1313 2029.63,1326.66L2029.63,1326.43C2036.88,1330.66 2045.21,1333.25 2054.21,1333.25C2081.34,1333.25 2103.34,1311.26 2103.34,1284.13C2103.34,1257 2081.34,1235 2054.21,1235Z" style="fill:rgb(205,62,62);fill-rule:nonzero;"/>
        </g>
    </g>
</svg>
