<svg id="Layer_1" data-name="Layer 1" xmlns="http://www.w3.org/2000/svg" viewBox="0 0 84.24 24.78">
							<title>lovezagreb-logo</title>
							<path id="heart" d="M43.43,2.65a1.17,1.17,0,0,0-1,.42,1.23,1.23,0,0,0-2,1.42h0l.08.1,1.64,1.82.17.18.13-.11,1.76-1.63a1.23,1.23,0,0,0,.1-1.74h0A1.24,1.24,0,0,0,43.43,2.65Z" transform="translate(-3.43 -2.64)" fill="#ea1d5d"></path>
							<path d="M23.76,16.13l6.87-9.6H27a2.38,2.38,0,0,0-1.93.68,3.18,3.18,0,0,0-.55,1.39h-.4l.3-2.66h8.3v.18l-6.87,9.6h4.07a2.8,2.8,0,0,0,2-.63,4.12,4.12,0,0,0,.72-1.49H33l-.4,2.79h-8.9Zm11.15-3.19a16.59,16.59,0,0,1,2.81-1.28V11a2.82,2.82,0,0,0-.15-1,1.1,1.1,0,0,0-1.08-.51,1.37,1.37,0,0,0-.74.2.62.62,0,0,0-.35.58,1.5,1.5,0,0,0,0,.29v.28a.68.68,0,0,1-.28.6.9.9,0,0,1-.39.1.6.6,0,0,1-.45-.28.72.72,0,0,1-.18-.5,1.51,1.51,0,0,1,.66-1.11,2.77,2.77,0,0,1,2-.59,2.07,2.07,0,0,1,1.94.93A3.38,3.38,0,0,1,39,11.57v3a2.08,2.08,0,0,0,0,.61.41.41,0,0,0,.41.31h.29l.4-.26v.4a3.15,3.15,0,0,1-.54.49,1.66,1.66,0,0,1-.88.3.89.89,0,0,1-.75-.33,1.51,1.51,0,0,1-.25-.81,10.53,10.53,0,0,1-1,.76,2.74,2.74,0,0,1-1.27.42A1.67,1.67,0,0,1,34.27,16a1.53,1.53,0,0,1-.48-1.17A2.15,2.15,0,0,1,34.91,12.94Zm2.81-.87a6.76,6.76,0,0,0-1.45.65,1.85,1.85,0,0,0-1.1,1.55,1.12,1.12,0,0,0,1,1.24h.12a2,2,0,0,0,1-.28.86.86,0,0,0,.46-.73Zm3.92.85a2.23,2.23,0,0,1-.38-1.27A2.54,2.54,0,0,1,43.8,9.1H44a3.15,3.15,0,0,1,1.27.27,4.14,4.14,0,0,0,1.27.23h1v.63H46.28c.08.18.15.36.22.56a3.78,3.78,0,0,1,.13.83,2.35,2.35,0,0,1-.73,1.61A2.64,2.64,0,0,1,44,14a3.85,3.85,0,0,1-.69-.06c-.15,0-.34.12-.59.37a.93.93,0,0,0-.37.61c0,.16.18.28.54.35a3.94,3.94,0,0,0,.77.08,10.09,10.09,0,0,1,2.68.22,1.49,1.49,0,0,1,1.13,1.59A2.17,2.17,0,0,1,46.08,19a5.72,5.72,0,0,1-2.73.73,3.48,3.48,0,0,1-2-.51,1.39,1.39,0,0,1-.73-1.07.78.78,0,0,1,.19-.53,4.74,4.74,0,0,1,.76-.79l.51-.45.09-.09a2.3,2.3,0,0,1-.52-.26.7.7,0,0,1-.31-.55.93.93,0,0,1,.27-.62,8.47,8.47,0,0,1,1.13-1.11A2,2,0,0,1,41.64,12.92Zm.79,5.68a5.4,5.4,0,0,0,1.65.24,4.39,4.39,0,0,0,2.07-.44A1.31,1.31,0,0,0,47,17.31c0-.33-.22-.56-.65-.68a7.14,7.14,0,0,0-1.52-.12H43.12l-.59-.16a1.68,1.68,0,0,0-.44.48,1.48,1.48,0,0,0-.37.9A.89.89,0,0,0,42.43,18.6Zm2.43-5.27a1.58,1.58,0,0,0,.45-1.27A4.48,4.48,0,0,0,45,10.43a1.26,1.26,0,0,0-1.27-.91,1,1,0,0,0-1,.71,2.42,2.42,0,0,0-.14.93A3.13,3.13,0,0,0,43,12.84a1.36,1.36,0,0,0,1.17.74,1.2,1.2,0,0,0,.7-.23ZM48.05,16a2.05,2.05,0,0,0,.93-.25,1.11,1.11,0,0,0,.23-.8V11.6a3,3,0,0,0-.14-1.08.53.53,0,0,0-.52-.33h-.48V10L49,9.68l.64-.23.83-.33h.06a.48.48,0,0,1,0,.17V10.6a5.34,5.34,0,0,1,1-1.07,1.43,1.43,0,0,1,.94-.42.9.9,0,0,1,.64.23.83.83,0,0,1,0,1.12.64.64,0,0,1-.47.21.89.89,0,0,1-.59-.26.73.73,0,0,0-.46-.27,1,1,0,0,0-.66.43,1.2,1.2,0,0,0-.39.89v3.45a1.14,1.14,0,0,0,.3.91,1.58,1.58,0,0,0,1,.25v.29H48ZM58.72,9.87A2.76,2.76,0,0,1,59.54,12H54.68a3.94,3.94,0,0,0,.8,2.55,2.23,2.23,0,0,0,1.72.81,2.3,2.3,0,0,0,1.36-.42,4.56,4.56,0,0,0,1-1.19l.27.08a4.34,4.34,0,0,1-1.16,1.79,2.94,2.94,0,0,1-2.11.83,2.59,2.59,0,0,1-2.23-1.08,4.12,4.12,0,0,1-.78-2.55,4,4,0,0,1,.88-2.64A2.9,2.9,0,0,1,56.81,9,2.72,2.72,0,0,1,58.72,9.87Zm-3.66.59a2.92,2.92,0,0,0-.36,1h3.23a3,3,0,0,0-.29-1.15,1.25,1.25,0,0,0-1.27-.67A1.42,1.42,0,0,0,55.06,10.46ZM60.27,6.6V6.31c.54-.12,1.06-.27,1.58-.44l.75-.27a.14.14,0,0,1,0,.09v4.69a2.13,2.13,0,0,1,.6-.7,2.48,2.48,0,0,1,1.61-.57,2.33,2.33,0,0,1,1.92.89,3.73,3.73,0,0,1,.79,2.54,4.08,4.08,0,0,1-1,2.79,3.56,3.56,0,0,1-2.72,1.16,4.49,4.49,0,0,1-1.67-.34c-.54-.22-.81-.44-.81-.67V7.35a1.35,1.35,0,0,0-.13-.63c-.08-.13-.27-.19-.57-.19Zm2.92,9.18a3.13,3.13,0,0,0,.92.18,1.79,1.79,0,0,0,1.57-.85,3.71,3.71,0,0,0,.51-2A4.77,4.77,0,0,0,65.7,11a1.61,1.61,0,0,0-1.55-1,1.86,1.86,0,0,0-1,.33,1,1,0,0,0-.52.84v3.91a.74.74,0,0,0,.59.62Z" transform="translate(-3.43 -2.64)" fill="#fff"></path>
							<path d="M6,24.77c-.09-.33-.25-.66-.69-.66a.49.49,0,0,0-.54.45.14.14,0,0,0,0,.09c0,.36.24.54.63.74s.87.43.87,1a1,1,0,0,1-1,.95h0a2.58,2.58,0,0,1-.73-.16c0-.12-.1-.53-.13-.77h.15c.09.31.31.78.83.78a.55.55,0,0,0,.55-.55v0c0-.38-.26-.55-.65-.76s-.83-.42-.83-1A.89.89,0,0,1,5.26,24h.09a4.08,4.08,0,0,1,.69.09,2.72,2.72,0,0,0,.08.72Z" transform="translate(-3.43 -2.64)" fill="#fff"></path>
							<path d="M9.83,24.79a4.09,4.09,0,0,0-.16-.42c-.08-.13-.13-.17-.41-.17h-.5v2.45c0,.39,0,.44.52.47v.14H7.81v-.14c.47,0,.51-.08.51-.47V24.2H7.86c-.27,0-.35,0-.44.18a1.46,1.46,0,0,0-.16.41H7.11c0-.31.06-.62.07-.9H7.3c.07.12.13.11.27.11h2a.28.28,0,0,0,.25-.11h.11v.88Z" transform="translate(-3.43 -2.64)" fill="#fff"></path>
							<path d="M12.59,23.93a1.62,1.62,0,0,1,1.63,1.6v.07a1.67,1.67,0,0,1-3.33.31,1,1,0,0,1,0-.24,1.66,1.66,0,0,1,1.59-1.74Zm-.1.19c-.56,0-1.06.48-1.06,1.41s.51,1.62,1.22,1.62,1.07-.45,1.07-1.42S13.15,24.12,12.49,24.12Z" transform="translate(-3.43 -2.64)" fill="#fff"></path>
							<path d="M18.19,27.3H18a.91.91,0,0,1-.78-.44c-.19-.25-.37-.57-.53-.82s-.17-.2-.42-.2h-.18v.76c0,.43.06.45.46.49v.14H15.21v-.14c.42,0,.45-.06.45-.49v-2c0-.43-.05-.44-.45-.49V24h1.28a1.34,1.34,0,0,1,.8.17.76.76,0,0,1,.34.67.94.94,0,0,1-.64.86c.09.15.3.49.45.72a4.71,4.71,0,0,0,.4.51.71.71,0,0,0,.37.23Zm-1.86-1.63a1,1,0,0,0,.56-.14.78.78,0,0,0,.27-.62.69.69,0,0,0-.61-.74h-.13a.41.41,0,0,0-.27.05.37.37,0,0,0-.06.21v1.23Z" transform="translate(-3.43 -2.64)" fill="#fff"></path>
							<path d="M18.89,27.26v-.14c.41,0,.45-.06.45-.49v-2c0-.43,0-.45-.45-.5V24h1.34v.14c-.42.05-.46.07-.46.5v2c0,.43,0,.45.46.49v.14Z" transform="translate(-3.43 -2.64)" fill="#fff"></path>
							<path d="M23.83,26.47a5.24,5.24,0,0,1-.22.79H21.17v-.14c.47,0,.5-.08.5-.49v-2c0-.45,0-.47-.43-.51V24h2.27v.77h-.15a2.26,2.26,0,0,0-.15-.39c-.08-.16-.2-.2-.5-.2h-.47c-.16,0-.17,0-.17.16v1.11h.56c.37,0,.4-.07.46-.41h.15v1h-.11c-.07-.36-.11-.41-.47-.41h-.55v1c0,.35.11.38.36.38h.47c.3,0,.35,0,.46-.17a3.14,3.14,0,0,0,.28-.46Z" transform="translate(-3.43 -2.64)" fill="#fff"></path>
							<path d="M26.43,24.77c-.09-.33-.25-.66-.69-.66a.49.49,0,0,0-.54.45.14.14,0,0,0,0,.09c0,.36.24.54.64.74s.86.43.86,1a1,1,0,0,1-1.05.95h0a2.46,2.46,0,0,1-.77-.16c0-.12-.1-.53-.14-.77h.16a.9.9,0,0,0,.82.78.55.55,0,0,0,.59-.5.28.28,0,0,0,0-.09c0-.38-.26-.55-.64-.76s-.83-.42-.83-1a.89.89,0,0,1,.91-.89h.09a4.1,4.1,0,0,1,.68.09,2.72,2.72,0,0,0,.08.72Z" transform="translate(-3.43 -2.64)" fill="#fff"></path>
							<path d="M32.34,26.46a7.77,7.77,0,0,1-.28.76,7.09,7.09,0,0,1-.91.12,1.69,1.69,0,0,1-1.82-1.54v-.14A1.73,1.73,0,0,1,31,23.91l.22,0a4.83,4.83,0,0,1,.92.12,5.75,5.75,0,0,0,.1.78h-.16a.93.93,0,0,0-.48-.67,1.08,1.08,0,0,0-.5-.08,1.29,1.29,0,0,0-1.31,1.29.93.93,0,0,0,0,.23c0,1,.56,1.59,1.33,1.59.51,0,.75-.24,1-.74Z" transform="translate(-3.43 -2.64)" fill="#fff"></path>
							<path d="M36.33,27.3h-.19a.91.91,0,0,1-.78-.44c-.19-.25-.37-.57-.53-.82s-.16-.2-.42-.2h-.18v.76c0,.43.06.45.46.49v.14H33.35v-.14c.42,0,.45-.06.45-.49v-2c0-.43,0-.44-.45-.49V24h1.28a1.34,1.34,0,0,1,.8.17.76.76,0,0,1,.35.67,1,1,0,0,1-.65.86c.09.15.3.49.46.72a4.33,4.33,0,0,0,.39.51.71.71,0,0,0,.37.23Zm-1.85-1.63a1,1,0,0,0,.55-.14.78.78,0,0,0,.27-.62.69.69,0,0,0-.61-.74h-.13a.34.34,0,0,0-.26.05s-.07.08-.07.21v1.23Z" transform="translate(-3.43 -2.64)" fill="#fff"></path>
							<path d="M39.63,26.47a5.16,5.16,0,0,1-.21.79H37v-.14c.46,0,.5-.08.5-.49v-2c0-.45-.06-.47-.43-.51V24h2.26v.77h-.15a2.26,2.26,0,0,0-.15-.39c-.08-.16-.2-.2-.5-.2H38c-.15,0-.16,0-.16.16v1.11h.56c.38,0,.41-.07.47-.41h.15v1H38.9c-.07-.36-.11-.41-.47-.41h-.55v1c0,.35.11.38.36.38h.47c.3,0,.35,0,.46-.17a3.07,3.07,0,0,0,.27-.46Z" transform="translate(-3.43 -2.64)" fill="#fff"></path>
							<path d="M42.18,27.26v-.14c.33,0,.37-.09.3-.28s-.17-.44-.27-.76H41.12l-.22.63c-.11.32,0,.36.37.41v.14H40.11v-.14c.31,0,.39-.07.57-.52l1-2.64h.16c.32.86.66,1.81,1,2.68.16.43.2.47.56.51v.14Zm-.5-2.66-.48,1.28h.94Z" transform="translate(-3.43 -2.64)" fill="#fff"></path>
							<path d="M46.35,24.79a1.92,1.92,0,0,0-.16-.42c-.08-.13-.13-.17-.4-.17h-.5v2.45c0,.39,0,.44.51.47v.14H44.34v-.14c.47,0,.51-.08.51-.47V24.2h-.42c-.27,0-.35,0-.44.18a1.86,1.86,0,0,0-.17.41h-.19c0-.31.06-.62.08-.9h.12c.07.12.13.11.27.11h2c.15,0,.19,0,.26-.11h.07v.88Z" transform="translate(-3.43 -2.64)" fill="#fff"></path>
							<path d="M50,26.47a5.24,5.24,0,0,1-.22.79H47.37v-.14c.47,0,.5-.08.5-.49v-2c0-.45,0-.47-.43-.51V24h2.27v.77h-.15a1.47,1.47,0,0,0-.13-.37c-.08-.16-.2-.2-.5-.2h-.47c-.16,0-.17,0-.17.16v1.11h.56c.37,0,.4-.07.46-.41h.15v1h-.13c-.07-.36-.11-.41-.47-.41h-.55v1c0,.35.11.38.36.38h.47c.3,0,.35,0,.47-.17a4.25,4.25,0,0,0,.27-.46Z" transform="translate(-3.43 -2.64)" fill="#fff"></path>
							<path d="M52.28,24a2,2,0,0,1,1.46.44,1.46,1.46,0,0,1,.43,1.07,1.68,1.68,0,0,1-.63,1.36,2.5,2.5,0,0,1-1.48.39H50.88v-.14c.43,0,.45-.07.45-.48v-2c0-.43-.06-.45-.45-.49V24Zm-.51,2.6c0,.37.16.48.54.48a1.32,1.32,0,0,0,1.36-1.27,1.47,1.47,0,0,0,0-.21,1.32,1.32,0,0,0-.58-1.2,1.54,1.54,0,0,0-.86-.2.59.59,0,0,0-.39.07.44.44,0,0,0-.07.28Z" transform="translate(-3.43 -2.64)" fill="#fff"></path>
							<path d="M58.53,25.5c.48.08.87.31.87.8a.91.91,0,0,1-.49.77,1.87,1.87,0,0,1-.87.19H56.81v-.14c.43,0,.45-.08.45-.48v-2c0-.42,0-.45-.45-.49V24h1.31a1.27,1.27,0,0,1,.78.18.67.67,0,0,1,.29.56A.82.82,0,0,1,58.53,25.5ZM58,25.44c.55,0,.78-.22.78-.64s-.22-.62-.7-.62a.52.52,0,0,0-.28.05.48.48,0,0,0-.06.25v1Zm-.26,1.16c0,.36.09.45.44.45a.7.7,0,0,0,.77-.62.45.45,0,0,0,0-.11c0-.52-.36-.74-1-.74h-.24Z" transform="translate(-3.43 -2.64)" fill="#fff"></path>
							<path d="M63.17,24.14c-.35,0-.41.1-.61.42s-.41.71-.66,1.16a.41.41,0,0,0-.07.29v.59c0,.42,0,.45.51.49v.14H60.9v-.14c.45-.06.49-.07.49-.49V26a.56.56,0,0,0-.1-.29c-.18-.32-.35-.64-.62-1.11s-.24-.4-.59-.44V24h1.24v.14c-.36.05-.34.12-.25.29.21.38.45.84.66,1.21.18-.33.46-.88.6-1.16s.1-.3-.29-.34V24h1.13Z" transform="translate(-3.43 -2.64)" fill="#fff"></path>
							<path d="M67.87,26.43a4.87,4.87,0,0,1-.23.83H65.3v-.14c.46,0,.5-.07.5-.49v-2c0-.42,0-.45-.45-.49V24h1.34v.14c-.4,0-.45.06-.45.49v2c0,.3,0,.37.32.38H67c.26,0,.33,0,.45-.15a1.81,1.81,0,0,0,.3-.52Z" transform="translate(-3.43 -2.64)" fill="#fff"></path>
							<path d="M70.43,23.93a1.71,1.71,0,0,1,0,3.41,1.63,1.63,0,0,1-1.67-1.59.14.14,0,0,1,0-.09,1.65,1.65,0,0,1,1.6-1.73Zm-.11.19c-.56,0-1.07.47-1.07,1.41s.51,1.62,1.23,1.62,1.06-.45,1.06-1.42-.53-1.61-1.19-1.61Z" transform="translate(-3.43 -2.64)" fill="#fff"></path>
							<path d="M76.18,26.46a7.77,7.77,0,0,1-.28.76,7.09,7.09,0,0,1-.91.12,1.69,1.69,0,0,1-1.82-1.54v-.14a1.73,1.73,0,0,1,1.71-1.75l.22,0a4.83,4.83,0,0,1,.92.12,5.75,5.75,0,0,0,.1.78H76a1,1,0,0,0-.49-.67,1.08,1.08,0,0,0-.5-.08,1.29,1.29,0,0,0-1.31,1.27,1,1,0,0,0,0,.25c0,1,.55,1.59,1.32,1.59.51,0,.75-.24,1-.74Z" transform="translate(-3.43 -2.64)" fill="#fff"></path>
							<path d="M79.08,27.26v-.14c.33,0,.37-.09.3-.28s-.17-.44-.28-.76H78l-.22.63c-.11.32,0,.36.37.41v.14H77v-.14c.31,0,.39-.07.57-.52l1-2.64h.16c.32.86.66,1.81,1,2.68.16.43.2.47.56.51v.14Zm-.5-2.66-.48,1.28H79Z" transform="translate(-3.43 -2.64)" fill="#fff"></path>
							<path d="M83.55,26.43a4.91,4.91,0,0,1-.24.83H81v-.14c.46,0,.5-.07.5-.49v-2c0-.42,0-.45-.46-.49V24h1.35v.14c-.4,0-.46.06-.46.49v2c0,.3,0,.37.33.38h.4c.25,0,.33,0,.44-.15a2.11,2.11,0,0,0,.31-.52Z" transform="translate(-3.43 -2.64)" fill="#fff"></path>
							<path d="M86.24,24.77c-.09-.33-.25-.66-.69-.66a.49.49,0,0,0-.54.45.14.14,0,0,0,0,.09c0,.36.24.54.64.74s.86.43.86,1a1,1,0,0,1-1.05.95h0a2.46,2.46,0,0,1-.77-.16c0-.12-.1-.53-.14-.77h.16a.9.9,0,0,0,.82.78.55.55,0,0,0,.59-.5.28.28,0,0,0,0-.09c0-.38-.26-.55-.64-.76s-.83-.42-.83-1a.89.89,0,0,1,.91-.89h.09a4.1,4.1,0,0,1,.68.09,2.72,2.72,0,0,0,.08.72Z" transform="translate(-3.43 -2.64)" fill="#fff"></path>
							<path d="M39.68,5.45a4.62,4.62,0,0,1-.17.72H37.43V6.11c.43-.06.45-.1.45-.49v-2c0-.39,0-.42-.42-.47V3.06h1.15v.06c-.33.06-.39.08-.39.47v2.1c0,.34.06.35.38.35h.32c.28,0,.39,0,.52-.19a4.11,4.11,0,0,0,.21-.42Z" transform="translate(-3.43 -2.64)" fill="#fff"></path>
							<path d="M48.36,3.12c-.33.06-.36.12-.54.53s-.65,1.66-1,2.59h-.07l-1-2.64c-.13-.37-.2-.4-.51-.46V3.06h1.12v.06c-.31.07-.36.11-.3.3.12.36.69,1.91.81,2.23.19-.49.57-1.49.79-2.1.1-.3.1-.37-.33-.43V3.06h1Z" transform="translate(-3.43 -2.64)" fill="#fff"></path>
							<path d="M51.71,5.49a3.93,3.93,0,0,1-.15.68H49.39V6.11c.42-.06.45-.09.45-.48v-2c0-.41,0-.44-.39-.51v0h2v.65h0a2.39,2.39,0,0,0-.15-.37c-.09-.14-.15-.15-.43-.15h-.52c-.13,0-.14,0-.14.15V4.45h.59c.32,0,.36-.09.43-.41h.06V5h-.06c-.09-.32-.12-.41-.42-.41h-.6v1c0,.36.13.37.39.37h.48a.38.38,0,0,0,.37-.22,2.91,2.91,0,0,0,.18-.35Z" transform="translate(-3.43 -2.64)" fill="#fff"></path>
							<line y1="18.93" x2="84.24" y2="18.93" fill="#fff" stroke="#fff" stroke-miterlimit="10" stroke-width="0.25"></line>
						</svg>